<svg xmlns="http://www.w3.org/2000/svg" width="197" height="257" viewBox="0 0 197 257">
  <metadata><?xpacket begin="﻿" id="W5M0MpCehiHzreSzNTczkc9d"?>
<x:xmpmeta xmlns:x="adobe:ns:meta/" x:xmptk="Adobe XMP Core 5.6-c142 79.160924, 2017/07/13-01:06:39        ">
   <rdf:RDF xmlns:rdf="http://www.w3.org/1999/02/22-rdf-syntax-ns#">
      <rdf:Description rdf:about=""/>
   </rdf:RDF>
</x:xmpmeta>
                                                                                                    
                                                                                                    
                                                                                                    
                                                                                                    
                                                                                                    
                                                                                                    
                                                                                                    
                                                                                                    
                                                                                                    
                                                                                                    
                                                                                                    
                                                                                                    
                                                                                                    
                                                                                                    
                                                                                                    
                                                                                                    
                                                                                                    
                                                                                                    
                                                                                                    
                                                                                                    
                           
<?xpacket end="w"?></metadata>
<defs>
    <style>
      .cls-1 {
        fill: #fff;
        stroke: #f6b11a;
        stroke-width: 1px;
        fill-rule: evenodd;
      }
    </style>
  </defs>
  <path class="cls-1" d="M115.285,0.06c13.831-.247,26.61.21,37.388,3.477,5.262,1.6,10.584,4.107,15.8,5.409V9.72h-1.156C162.38,5.832,151.789,5.3,144.579,3.538,114.818-3.749,81.587,7.822,63.635,18.993c-25.021,15.57-39.979,34.371-51.65,63.366C9.394,88.8,8.7,96.157,6.974,103.223c-2.869,11.722-1.211,31.225,1.542,41.342,1.5,5.528,1.828,10.506,3.855,15.455,10.257,25.045,24.007,43.862,45.1,57.956A135.791,135.791,0,0,0,91.387,234.2c4.848,1.579,9.375,1.437,14.647,2.7,7.215,1.735,18.811,2.552,26.6.773l6.553-.386c4.837-1.167,10.278-2.032,14.647-3.478,1.614-.533,2.738-0.281,3.854-1.159-5.1.1-19.443-1.937-21.97-4.25,3.411-.026,9.077-0.616,11.178-2.318-17.145-3.273-26.711-15.331-35.461-27.046-4.776-6.394-10.979-11.757-15.8-18.16L91,176.634l-9.636-10.046c-1.652-1.655-4.544-3.051-5.4-5.409h1.156c1.439,0.914,9.6-.186,10.407-1.546-6.475-.178-14.643-7.281-16.189-12.364h0.771a10.29,10.29,0,0,0,2.7,1.546c-2.9-3.817-7.181-6.86-10.022-10.819A132.426,132.426,0,0,1,50.53,111.723c-1.995-4.845-3.6-14.668,1.927-16.614,3.291-3.054,11.649-1.061,15.418,0,10.476,2.949,15.127,5.149,20.814,12.75,1.684,2.251,4.416,4,5.4,6.955a1.4,1.4,0,0,0,.385-0.773c1.085-1.629.743-4.669,1.927-6.182,1.708,2.157,5.093,3.37,7.324,5.023a60.754,60.754,0,0,1,11.178,11.2c3.889,5.2,7.774,10.639,11.178,16.228,2.063,3.388,2.931,7.762,5.4,10.818,0.15-2.046.86-7.23,2.313-8.114v0.773l9.25,22.8h0.386V164.27c-1.052-1.721-.58-4.4-1.157-6.568q-1.349-5.217-2.7-10.433h0.771c8.049,13.472,23.223,22.231,31.992,35.161,3.243,4.781,6.892,12.39,3.855,20.091h0.385v-0.386c1.8-1.876,2.392-6.838,4.626-8.114,0.411,2.63,1.944,4.646,2.7,6.955,2.6,7.971,3.35,20.889.385,28.978H183.9v-0.387L76.74,123.7v0.387c3.659,2.459,6.977,7.291,9.636,10.818l4.24,3.864c4.707,6.243,10.717,11.15,15.418,17.387l5.011,4.637a97.257,97.257,0,0,1,8.095,9.273l7.708,7.341c5.354,7.1,12.276,13.054,18.5,19.318,7.183,7.228,14,14.81,21.2,22.024,10.071,10.1,20.411,17.872,27.366,31.3,1.111,2.144,2.641,4.1,3.084,6.955h-0.771v-0.773c-1.583-1.739-2.174-4.125-3.469-6.182a42.432,42.432,0,0,0-10.022-11.2c-1.171-.872-4.766-4.813-6.167-3.863-18.331,13.792-63.406,15.761-88.267,6.568-5.74-2.122-10.853-3.445-16.189-5.8-30.927-13.625-54.386-41.577-65.526-75.343-3.795-11.5-8.948-32.7-5.4-48.3l0.771-9.273C3.95,94.941,5.194,86.8,8.131,79.654,20.974,48.414,42.383,23.929,72.886,10.493c8.343-3.675,17.431-6.028,26.981-8.5Z"/>
</svg>
